<mxfile host="app.diagrams.net" modified="2024-08-26T19:33:15.754Z" agent="Mozilla/5.0 (Windows NT 10.0; Win64; x64) AppleWebKit/537.36 (KHTML, like Gecko) Chrome/127.0.0.0 Safari/537.36" etag="nK6ASv3mZ2QaQcSwAlyq" version="24.6.5" type="github">
  <diagram name="Page-1" id="K3Sokg0LMrF3r1ldrdL8">
    <mxGraphModel dx="1434" dy="772" grid="1" gridSize="10" guides="1" tooltips="1" connect="1" arrows="1" fold="1" page="1" pageScale="1" pageWidth="827" pageHeight="1169" math="0" shadow="0">
      <root>
        <mxCell id="0" />
        <mxCell id="1" parent="0" />
        <mxCell id="11R6kJDu9oam1e1UtQUR-36" value="" style="edgeStyle=orthogonalEdgeStyle;rounded=1;orthogonalLoop=1;jettySize=auto;html=1;endArrow=none;endFill=0;curved=0;" edge="1" parent="1" source="11R6kJDu9oam1e1UtQUR-34" target="11R6kJDu9oam1e1UtQUR-35">
          <mxGeometry relative="1" as="geometry" />
        </mxCell>
        <mxCell id="11R6kJDu9oam1e1UtQUR-38" value="" style="edgeStyle=orthogonalEdgeStyle;rounded=1;orthogonalLoop=1;jettySize=auto;html=1;endArrow=none;endFill=0;curved=0;" edge="1" parent="1" source="11R6kJDu9oam1e1UtQUR-34" target="11R6kJDu9oam1e1UtQUR-37">
          <mxGeometry relative="1" as="geometry" />
        </mxCell>
        <mxCell id="11R6kJDu9oam1e1UtQUR-34" value="French Power Plant" style="rounded=0;whiteSpace=wrap;html=1;" vertex="1" parent="1">
          <mxGeometry x="320" y="40" width="120" height="60" as="geometry" />
        </mxCell>
        <mxCell id="11R6kJDu9oam1e1UtQUR-42" value="" style="edgeStyle=orthogonalEdgeStyle;rounded=1;orthogonalLoop=1;jettySize=auto;html=1;exitX=0.5;exitY=1;exitDx=0;exitDy=0;entryX=0;entryY=0.5;entryDx=0;entryDy=0;endArrow=none;endFill=0;curved=0;" edge="1" parent="1" source="11R6kJDu9oam1e1UtQUR-35" target="11R6kJDu9oam1e1UtQUR-41">
          <mxGeometry relative="1" as="geometry" />
        </mxCell>
        <mxCell id="11R6kJDu9oam1e1UtQUR-53" value="" style="edgeStyle=orthogonalEdgeStyle;rounded=1;orthogonalLoop=1;jettySize=auto;html=1;entryX=0;entryY=0.5;entryDx=0;entryDy=0;endArrow=none;endFill=0;curved=0;" edge="1" parent="1" source="11R6kJDu9oam1e1UtQUR-35" target="11R6kJDu9oam1e1UtQUR-52">
          <mxGeometry relative="1" as="geometry" />
        </mxCell>
        <mxCell id="11R6kJDu9oam1e1UtQUR-35" value="Physical" style="rounded=0;whiteSpace=wrap;html=1;" vertex="1" parent="1">
          <mxGeometry x="120" y="160" width="120" height="60" as="geometry" />
        </mxCell>
        <mxCell id="11R6kJDu9oam1e1UtQUR-61" value="" style="edgeStyle=orthogonalEdgeStyle;rounded=1;orthogonalLoop=1;jettySize=auto;html=1;entryX=0;entryY=0.5;entryDx=0;entryDy=0;endArrow=none;endFill=0;curved=0;" edge="1" parent="1" source="11R6kJDu9oam1e1UtQUR-37" target="11R6kJDu9oam1e1UtQUR-60">
          <mxGeometry relative="1" as="geometry" />
        </mxCell>
        <mxCell id="11R6kJDu9oam1e1UtQUR-37" value="Digital" style="rounded=0;whiteSpace=wrap;html=1;" vertex="1" parent="1">
          <mxGeometry x="520" y="160" width="120" height="60" as="geometry" />
        </mxCell>
        <mxCell id="11R6kJDu9oam1e1UtQUR-44" value="" style="edgeStyle=orthogonalEdgeStyle;rounded=1;orthogonalLoop=1;jettySize=auto;html=1;endArrow=none;endFill=0;curved=0;" edge="1" parent="1" source="11R6kJDu9oam1e1UtQUR-41" target="11R6kJDu9oam1e1UtQUR-43">
          <mxGeometry relative="1" as="geometry" />
        </mxCell>
        <mxCell id="11R6kJDu9oam1e1UtQUR-46" value="" style="edgeStyle=orthogonalEdgeStyle;rounded=1;orthogonalLoop=1;jettySize=auto;html=1;endArrow=none;endFill=0;curved=0;" edge="1" parent="1" source="11R6kJDu9oam1e1UtQUR-41" target="11R6kJDu9oam1e1UtQUR-45">
          <mxGeometry relative="1" as="geometry">
            <Array as="points">
              <mxPoint x="360" y="310" />
              <mxPoint x="360" y="390" />
            </Array>
          </mxGeometry>
        </mxCell>
        <mxCell id="11R6kJDu9oam1e1UtQUR-48" value="" style="edgeStyle=orthogonalEdgeStyle;rounded=1;orthogonalLoop=1;jettySize=auto;html=1;endArrow=none;endFill=0;curved=0;" edge="1" parent="1" source="11R6kJDu9oam1e1UtQUR-41" target="11R6kJDu9oam1e1UtQUR-47">
          <mxGeometry relative="1" as="geometry">
            <Array as="points">
              <mxPoint x="360" y="310" />
              <mxPoint x="360" y="470" />
            </Array>
          </mxGeometry>
        </mxCell>
        <mxCell id="11R6kJDu9oam1e1UtQUR-50" value="" style="edgeStyle=orthogonalEdgeStyle;rounded=1;orthogonalLoop=1;jettySize=auto;html=1;endArrow=none;endFill=0;curved=0;" edge="1" parent="1" source="11R6kJDu9oam1e1UtQUR-41" target="11R6kJDu9oam1e1UtQUR-49">
          <mxGeometry relative="1" as="geometry">
            <Array as="points">
              <mxPoint x="360" y="310" />
              <mxPoint x="360" y="555" />
            </Array>
          </mxGeometry>
        </mxCell>
        <mxCell id="11R6kJDu9oam1e1UtQUR-41" value="Steal Radioactive Material" style="rounded=0;whiteSpace=wrap;html=1;" vertex="1" parent="1">
          <mxGeometry x="200" y="280" width="120" height="60" as="geometry" />
        </mxCell>
        <mxCell id="11R6kJDu9oam1e1UtQUR-43" value="False Credentials" style="rounded=0;whiteSpace=wrap;html=1;" vertex="1" parent="1">
          <mxGeometry x="400" y="280" width="120" height="60" as="geometry" />
        </mxCell>
        <mxCell id="11R6kJDu9oam1e1UtQUR-45" value="Intercept in Transit" style="rounded=0;whiteSpace=wrap;html=1;" vertex="1" parent="1">
          <mxGeometry x="400" y="360" width="120" height="60" as="geometry" />
        </mxCell>
        <mxCell id="11R6kJDu9oam1e1UtQUR-47" value="Bribe security staff" style="rounded=0;whiteSpace=wrap;html=1;" vertex="1" parent="1">
          <mxGeometry x="400" y="440" width="120" height="60" as="geometry" />
        </mxCell>
        <mxCell id="11R6kJDu9oam1e1UtQUR-49" value="Disgruntled Employee" style="rounded=0;whiteSpace=wrap;html=1;" vertex="1" parent="1">
          <mxGeometry x="400" y="524.5" width="120" height="60" as="geometry" />
        </mxCell>
        <mxCell id="11R6kJDu9oam1e1UtQUR-55" value="" style="edgeStyle=orthogonalEdgeStyle;rounded=1;orthogonalLoop=1;jettySize=auto;html=1;endArrow=none;endFill=0;curved=0;" edge="1" parent="1" source="11R6kJDu9oam1e1UtQUR-52" target="11R6kJDu9oam1e1UtQUR-54">
          <mxGeometry relative="1" as="geometry" />
        </mxCell>
        <mxCell id="11R6kJDu9oam1e1UtQUR-57" value="" style="edgeStyle=orthogonalEdgeStyle;rounded=1;orthogonalLoop=1;jettySize=auto;html=1;endArrow=none;endFill=0;curved=0;" edge="1" parent="1" source="11R6kJDu9oam1e1UtQUR-52" target="11R6kJDu9oam1e1UtQUR-56">
          <mxGeometry relative="1" as="geometry">
            <Array as="points">
              <mxPoint x="360" y="630" />
              <mxPoint x="360" y="710" />
            </Array>
          </mxGeometry>
        </mxCell>
        <mxCell id="11R6kJDu9oam1e1UtQUR-52" value="Melt-down" style="rounded=0;whiteSpace=wrap;html=1;" vertex="1" parent="1">
          <mxGeometry x="200" y="600" width="120" height="60" as="geometry" />
        </mxCell>
        <mxCell id="11R6kJDu9oam1e1UtQUR-54" value="Damage to cooling rods" style="rounded=0;whiteSpace=wrap;html=1;" vertex="1" parent="1">
          <mxGeometry x="400" y="600" width="120" height="60" as="geometry" />
        </mxCell>
        <mxCell id="11R6kJDu9oam1e1UtQUR-56" value="Physical damage to critical inferstructure" style="rounded=0;whiteSpace=wrap;html=1;" vertex="1" parent="1">
          <mxGeometry x="400" y="680" width="120" height="60" as="geometry" />
        </mxCell>
        <mxCell id="11R6kJDu9oam1e1UtQUR-63" value="" style="edgeStyle=orthogonalEdgeStyle;rounded=0;orthogonalLoop=1;jettySize=auto;html=1;" edge="1" parent="1" source="11R6kJDu9oam1e1UtQUR-60" target="11R6kJDu9oam1e1UtQUR-62">
          <mxGeometry relative="1" as="geometry" />
        </mxCell>
        <mxCell id="11R6kJDu9oam1e1UtQUR-64" value="" style="edgeStyle=orthogonalEdgeStyle;rounded=1;orthogonalLoop=1;jettySize=auto;html=1;endArrow=none;endFill=0;curved=0;" edge="1" parent="1" source="11R6kJDu9oam1e1UtQUR-60" target="11R6kJDu9oam1e1UtQUR-62">
          <mxGeometry relative="1" as="geometry" />
        </mxCell>
        <mxCell id="11R6kJDu9oam1e1UtQUR-66" value="" style="edgeStyle=orthogonalEdgeStyle;rounded=1;orthogonalLoop=1;jettySize=auto;html=1;endArrow=none;endFill=0;curved=0;" edge="1" parent="1" source="11R6kJDu9oam1e1UtQUR-60" target="11R6kJDu9oam1e1UtQUR-65">
          <mxGeometry relative="1" as="geometry">
            <Array as="points">
              <mxPoint x="760" y="310" />
              <mxPoint x="760" y="390" />
            </Array>
          </mxGeometry>
        </mxCell>
        <mxCell id="11R6kJDu9oam1e1UtQUR-69" value="" style="edgeStyle=orthogonalEdgeStyle;rounded=1;orthogonalLoop=1;jettySize=auto;html=1;endArrow=none;endFill=0;curved=0;" edge="1" parent="1" source="11R6kJDu9oam1e1UtQUR-60" target="11R6kJDu9oam1e1UtQUR-68">
          <mxGeometry relative="1" as="geometry">
            <Array as="points">
              <mxPoint x="760" y="310" />
              <mxPoint x="760" y="470" />
            </Array>
          </mxGeometry>
        </mxCell>
        <mxCell id="11R6kJDu9oam1e1UtQUR-71" value="" style="edgeStyle=orthogonalEdgeStyle;rounded=1;orthogonalLoop=1;jettySize=auto;html=1;endArrow=none;endFill=0;curved=0;" edge="1" parent="1" source="11R6kJDu9oam1e1UtQUR-60" target="11R6kJDu9oam1e1UtQUR-70">
          <mxGeometry relative="1" as="geometry">
            <Array as="points">
              <mxPoint x="760" y="310" />
              <mxPoint x="760" y="555" />
            </Array>
          </mxGeometry>
        </mxCell>
        <mxCell id="11R6kJDu9oam1e1UtQUR-60" value="IT Hack" style="rounded=0;whiteSpace=wrap;html=1;" vertex="1" parent="1">
          <mxGeometry x="600" y="280" width="120" height="60" as="geometry" />
        </mxCell>
        <mxCell id="11R6kJDu9oam1e1UtQUR-62" value="DDOS Attack" style="rounded=0;whiteSpace=wrap;html=1;" vertex="1" parent="1">
          <mxGeometry x="800" y="280" width="120" height="60" as="geometry" />
        </mxCell>
        <mxCell id="11R6kJDu9oam1e1UtQUR-65" value="Tamper with monitoring software" style="rounded=0;whiteSpace=wrap;html=1;" vertex="1" parent="1">
          <mxGeometry x="800" y="360" width="120" height="60" as="geometry" />
        </mxCell>
        <mxCell id="11R6kJDu9oam1e1UtQUR-68" value="Steal staff information" style="rounded=0;whiteSpace=wrap;html=1;" vertex="1" parent="1">
          <mxGeometry x="800" y="440" width="120" height="60" as="geometry" />
        </mxCell>
        <mxCell id="11R6kJDu9oam1e1UtQUR-70" value="Steal Radioactive material information" style="rounded=0;whiteSpace=wrap;html=1;" vertex="1" parent="1">
          <mxGeometry x="800" y="524.5" width="120" height="60" as="geometry" />
        </mxCell>
      </root>
    </mxGraphModel>
  </diagram>
</mxfile>
